<svg width="21" height="18" viewBox="0 0 21 18" fill="none" xmlns="http://www.w3.org/2000/svg">
<path d="M20.2865 17C20.2865 17.1989 20.2075 17.3896 20.0669 17.5303C19.9262 17.6709 19.7355 17.75 19.5365 17.75C19.3376 17.75 19.1469 17.6709 19.0062 17.5303C18.8656 17.3896 18.7865 17.1989 18.7865 17C18.7858 16.4035 18.5484 15.8316 18.1267 15.4098C17.7049 14.9881 17.133 14.7508 16.5365 14.75H15.8485C15.4321 15.5588 14.8369 16.2621 14.1081 16.8067C13.3794 17.3512 12.5362 17.7227 11.6425 17.893C11.5989 17.9 11.5543 17.8976 11.5117 17.8858C11.4691 17.874 11.4295 17.8531 11.3957 17.8247C11.3619 17.7962 11.3346 17.7607 11.3158 17.7207C11.297 17.6807 11.287 17.6372 11.2865 17.593V9.99996C11.2865 9.80104 11.2075 9.61028 11.0669 9.46963C10.9262 9.32897 10.7355 9.24996 10.5365 9.24996C10.3376 9.24996 10.1469 9.32897 10.0062 9.46963C9.86556 9.61028 9.78655 9.80104 9.78655 9.99996V17.59C9.78611 17.6342 9.77612 17.6777 9.75729 17.7177C9.73845 17.7577 9.71119 17.7932 9.67739 17.8217C9.64359 17.8501 9.60404 17.871 9.56143 17.8828C9.51883 17.8946 9.47418 17.897 9.43055 17.89C8.53716 17.7201 7.69416 17.349 6.96544 16.805C6.23671 16.261 5.64138 15.5582 5.22455 14.75H4.53655C3.94005 14.7508 3.36822 14.9881 2.94643 15.4098C2.52465 15.8316 2.28734 16.4035 2.28655 17C2.28655 17.1989 2.20753 17.3896 2.06688 17.5303C1.92622 17.6709 1.73546 17.75 1.53655 17.75C1.33763 17.75 1.14687 17.6709 1.00622 17.5303C0.865564 17.3896 0.786547 17.1989 0.786547 17C0.787606 16.0057 1.18303 15.0525 1.88607 14.3495C2.5891 13.6464 3.54231 13.251 4.53655 13.25H4.68055C4.58876 12.8395 4.54049 12.4205 4.53655 12V10.75H1.53655C1.33763 10.75 1.14687 10.6709 1.00622 10.5303C0.865564 10.3896 0.786547 10.1989 0.786547 9.99996C0.786547 9.80104 0.865564 9.61028 1.00622 9.46963C1.14687 9.32897 1.33763 9.24996 1.53655 9.24996H4.53655V6.99996C4.53655 6.90796 4.54955 6.82996 4.55355 6.74196C3.79135 6.716 3.05552 6.45654 2.44562 5.99867C1.83572 5.5408 1.3812 4.90662 1.14355 4.18196L0.825547 3.23996C0.794029 3.14659 0.781211 3.04792 0.787824 2.9496C0.794437 2.85128 0.820352 2.75522 0.864088 2.66691C0.907824 2.5786 0.968526 2.49977 1.04273 2.43492C1.11693 2.37007 1.20318 2.32047 1.29655 2.28896C1.48512 2.22531 1.69125 2.23917 1.86959 2.3275C2.04794 2.41583 2.18389 2.57139 2.24755 2.75996L2.56755 3.70996C2.71148 4.15294 2.99057 4.5397 3.36562 4.81592C3.74066 5.09213 4.19281 5.24392 4.65855 5.24996H4.92155C5.19473 4.81576 5.58538 4.46789 6.04821 4.24665C6.51104 4.02541 7.02709 3.93988 7.53655 3.99996H13.5365C14.0463 3.94018 14.5626 4.02617 15.0254 4.24795C15.4883 4.46973 15.8787 4.81821 16.1515 5.25296H16.4145C16.8789 5.24728 17.3298 5.09667 17.7044 4.82218C18.0789 4.54768 18.3583 4.16302 18.5035 3.72196L18.8255 2.76296C18.8892 2.57439 19.0252 2.41883 19.2035 2.3305C19.3818 2.24217 19.588 2.22831 19.7765 2.29196C19.9651 2.35561 20.1207 2.49156 20.209 2.66991C20.2973 2.84826 20.3112 3.05439 20.2475 3.24296L19.9265 4.19296C19.6881 4.91589 19.2336 5.54824 18.6243 6.00462C18.015 6.46099 17.2804 6.7194 16.5195 6.74496C16.5195 6.83296 16.5365 6.91096 16.5365 7.00296V9.25296H19.5365C19.7355 9.25296 19.9262 9.33197 20.0669 9.47263C20.2075 9.61328 20.2865 9.80404 20.2865 10.003C20.2865 10.2019 20.2075 10.3926 20.0669 10.5333C19.9262 10.6739 19.7355 10.753 19.5365 10.753H16.5365V12C16.5326 12.4205 16.4843 12.8395 16.3925 13.25H16.5365C17.5307 13.2513 18.4838 13.6468 19.1867 14.3498C19.8897 15.0527 20.2852 16.0058 20.2865 17ZM7.96855 2.49996H13.1045C13.1503 2.50038 13.1956 2.49033 13.2368 2.47058C13.2781 2.45082 13.3143 2.42189 13.3427 2.38599C13.3711 2.35009 13.3908 2.30817 13.4005 2.26345C13.4102 2.21872 13.4095 2.17238 13.3985 2.12796C13.2133 1.51299 12.8349 0.974044 12.3195 0.590946C11.804 0.207847 11.1788 0.000976563 10.5365 0.000976562C9.89429 0.000976562 9.26912 0.207847 8.75364 0.590946C8.23815 0.974044 7.85977 1.51299 7.67455 2.12796C7.66356 2.17238 7.66289 2.21872 7.67257 2.26345C7.68225 2.30817 7.70203 2.35009 7.73041 2.38599C7.75878 2.42189 7.79499 2.45082 7.83627 2.47058C7.87754 2.49033 7.92279 2.50038 7.96855 2.49996Z" fill="white"/>
</svg>
