<svg width="18" height="18" viewBox="0 0 18 18" fill="none" xmlns="http://www.w3.org/2000/svg">
<path d="M9.00033 0.666504C7.35215 0.666504 5.74099 1.15525 4.37058 2.07092C3.00017 2.9866 1.93206 4.28809 1.30133 5.81081C0.670603 7.33353 0.505575 9.00908 0.827119 10.6256C1.14866 12.2421 1.94234 13.727 3.10777 14.8924C4.27321 16.0578 5.75807 16.8515 7.37458 17.173C8.99109 17.4946 10.6666 17.3296 12.1894 16.6988C13.7121 16.0681 15.0136 15 15.9292 13.6296C16.8449 12.2592 17.3337 10.648 17.3337 8.99984C17.3337 7.90549 17.1181 6.82186 16.6993 5.81081C16.2805 4.79976 15.6667 3.8811 14.8929 3.10728C14.1191 2.33346 13.2004 1.71963 12.1894 1.30084C11.1783 0.882052 10.0947 0.666504 9.00033 0.666504ZM12.3587 7.49984L8.467 11.3832C8.41019 11.4428 8.34156 11.4899 8.26551 11.5214C8.18946 11.553 8.10765 11.5684 8.02533 11.5665C7.94323 11.5668 7.86189 11.5507 7.78606 11.5193C7.71023 11.4878 7.64142 11.4415 7.58366 11.3832L5.642 9.4415C5.5316 9.32302 5.47149 9.16632 5.47435 9.0044C5.47721 8.84249 5.5428 8.688 5.65731 8.57349C5.77182 8.45898 5.92631 8.39338 6.08823 8.39052C6.25014 8.38767 6.40685 8.44777 6.52533 8.55817L8.02533 10.0582L11.4753 6.6165C11.5326 6.55723 11.6012 6.51009 11.6771 6.47789C11.753 6.4457 11.8346 6.42911 11.917 6.42911C11.9994 6.42911 12.081 6.4457 12.1569 6.47789C12.2328 6.51009 12.3014 6.55723 12.3587 6.6165C12.4749 6.73412 12.5401 6.89281 12.5401 7.05817C12.5401 7.22353 12.4749 7.38222 12.3587 7.49984Z" fill="#004683"/>
</svg>
