<svg width="174" height="50" viewBox="0 0 174 50" fill="none" xmlns="http://www.w3.org/2000/svg">
<path d="M76.3229 20.3068V18.7614C76.3229 17.9078 76.0191 17.1803 75.4139 16.5764C74.8063 15.9749 74.0743 15.6705 73.2155 15.6705H67.0008C66.142 15.6705 65.41 15.9725 64.8024 16.5764C64.1948 17.1803 63.891 17.9078 63.891 18.7614V31.1175C63.891 31.9711 64.1948 32.6986 64.8024 33.3025C65.4076 33.9064 66.142 34.2083 67.0008 34.2083H73.2155C74.0743 34.2083 74.8063 33.9064 75.4139 33.3025C76.0214 32.6986 76.3229 31.9711 76.3229 31.1175V29.8812H70.1081V23.7043H82.54V31.1175C82.54 32.4133 82.296 33.6187 81.808 34.7362C81.32 35.8536 80.6526 36.8332 79.8106 37.6701C78.9661 38.5093 77.9758 39.1703 76.8348 39.6553C75.6961 40.1403 74.4881 40.3829 73.2155 40.3829H67.0008C65.6971 40.3829 64.4843 40.1403 63.36 39.6553C62.2357 39.1703 61.2501 38.507 60.4081 37.6701C59.5637 36.8308 58.8987 35.8536 58.4107 34.7362C57.9227 33.6187 57.6787 32.4133 57.6787 31.1175V18.7614C57.6787 17.4965 57.9227 16.2982 58.4107 15.1641C58.8987 14.0324 59.5661 13.0457 60.4081 12.2064C61.2501 11.3672 62.2357 10.7062 63.36 10.2212C64.4843 9.73616 65.6971 9.49365 67.0008 9.49365H73.2155C74.4881 9.49365 75.6937 9.73616 76.8348 10.2212C77.9734 10.7062 78.9661 11.3695 79.8106 12.2064C80.655 13.0433 81.32 14.03 81.808 15.1641C82.296 16.2958 82.54 17.4965 82.54 18.7614V20.3068H76.3252H76.3229Z" fill="white"/>
<path d="M114.906 34.2036V40.3805H102.474V34.2036H105.005L102.163 29.2606H96.5676V34.2036H99.675V40.3805H87.2432V34.2036H90.3505V15.6705H87.2432V9.49365H101.983C103.344 9.52218 104.617 9.80274 105.801 10.3329C106.985 10.8631 108.021 11.5693 108.909 12.4513C109.796 13.3334 110.499 14.37 111.018 15.5612C111.535 16.7523 111.796 18.0243 111.796 19.3772C111.796 20.9654 111.456 22.4228 110.774 23.7447C110.093 25.069 109.191 26.1865 108.067 27.0995L112.195 34.2036H114.903H114.906ZM96.57 23.0838H101.854C102.89 23.0838 103.77 22.7247 104.495 22.002C105.22 21.2816 105.584 20.4066 105.584 19.3772C105.584 18.3477 105.22 17.4727 104.495 16.7523C103.77 16.0319 102.89 15.6705 101.854 15.6705H96.57V23.0838Z" fill="white"/>
<path d="M134.485 9.49365C135.846 9.49365 137.133 9.75043 138.348 10.2664C139.561 10.7823 140.62 11.4884 141.522 12.3848C142.424 13.2835 143.135 14.3344 143.654 15.5398C144.17 16.7476 144.431 18.0267 144.431 19.3795C144.431 20.7324 144.173 22.0495 143.654 23.2407C143.135 24.4318 142.424 25.4756 141.522 26.3743C140.62 27.273 139.561 27.9768 138.348 28.4927C137.133 29.0086 135.846 29.2654 134.485 29.2654H129.2V34.2083H132.308V40.3852H119.876V34.2083H122.983V15.6705H119.876V9.49365H134.482H134.485ZM134.485 23.0861C135.52 23.0861 136.401 22.7271 137.126 22.0044C137.85 21.284 138.214 20.409 138.214 19.3795C138.214 18.35 137.85 17.4751 137.126 16.7547C136.401 16.0343 135.52 15.6729 134.485 15.6729H129.2V23.0861H134.485Z" fill="white"/>
<path d="M167.783 20.3068V18.7614C167.783 17.9078 167.479 17.1803 166.871 16.5764C166.264 15.9749 165.532 15.6705 164.673 15.6705H158.458C157.6 15.6705 156.868 15.9725 156.26 16.5764C155.652 17.1803 155.349 17.9078 155.349 18.7614V31.1175C155.349 31.9711 155.652 32.6986 156.26 33.3025C156.865 33.9064 157.6 34.2083 158.458 34.2083H164.673C165.532 34.2083 166.264 33.9064 166.871 33.3025C167.479 32.6986 167.783 31.9711 167.783 31.1175V29.5721H173.998V31.1175C173.998 32.4133 173.754 33.6187 173.266 34.7362C172.778 35.8536 172.11 36.8332 171.268 37.6701C170.426 38.507 169.433 39.1703 168.295 39.6553C167.156 40.1403 165.948 40.3829 164.675 40.3829H158.461C157.157 40.3829 155.944 40.1403 154.82 39.6553C153.696 39.1703 152.71 38.507 151.868 37.6701C151.024 36.8308 150.359 35.8536 149.871 34.7362C149.383 33.6187 149.139 32.4133 149.139 31.1175V18.7614C149.139 17.4965 149.383 16.2982 149.871 15.1641C150.359 14.0324 151.026 13.0457 151.868 12.2064C152.712 11.3672 153.696 10.7062 154.82 10.2212C155.944 9.73616 157.157 9.49365 158.461 9.49365H164.675C165.948 9.49365 167.154 9.73616 168.295 10.2212C169.433 10.7062 170.426 11.3695 171.268 12.2064C172.113 13.0457 172.778 14.03 173.266 15.1641C173.754 16.2958 173.998 17.4965 173.998 18.7614V20.3068H167.783Z" fill="white"/>
<path d="M25.1598 42.8693C35.0894 42.8693 43.1389 34.8688 43.1389 24.9996C43.1389 15.1304 35.0894 7.12988 25.1598 7.12988C15.2302 7.12988 7.18066 15.1304 7.18066 24.9996C7.18066 34.8688 15.2302 42.8693 25.1598 42.8693Z" fill="#EC2227"/>
<path d="M50.3202 24.6288C50.2676 31.576 48.0644 37.306 43.5386 42.0801C38.1659 47.7458 31.4871 50.3516 23.6816 49.9617C17.632 49.6597 12.3526 47.4034 7.95109 43.2617C2.24829 37.8932 -0.373472 31.2408 0.042756 23.471C0.370476 17.3654 2.72192 12.0634 7.01577 7.66259C12.4148 2.13002 19.0529 -0.373546 26.7579 0.0449042C32.7501 0.370629 37.9841 2.63406 42.3545 6.7401C47.6243 11.6902 50.2389 17.81 50.3202 24.6288ZM25.1408 48.112C38.0247 48.0454 48.3802 37.8219 48.3874 25.0116C48.3946 12.2204 38.0702 1.91129 25.1623 1.90415C12.2712 1.89702 1.92057 12.1823 1.91339 24.9878C1.90621 37.7838 12.2354 48.0287 25.1384 48.1096L25.1408 48.112Z" fill="white"/>
<path d="M25.1602 36.493C31.5465 36.493 36.7236 31.3474 36.7236 24.9999C36.7236 18.6525 31.5465 13.5068 25.1602 13.5068C18.7738 13.5068 13.5967 18.6525 13.5967 24.9999C13.5967 31.3474 18.7738 36.493 25.1602 36.493Z" fill="#242157"/>
<path d="M26.7556 30.9156C26.4231 30.6731 26.0188 30.3973 25.6432 30.0858C25.5715 30.0264 25.5571 29.7981 25.6097 29.6983C26.7556 27.5157 28.1908 25.528 29.7457 23.6212C29.8079 23.5451 30.0423 23.5047 30.1213 23.5594C30.4944 23.8091 30.8437 24.0991 31.1547 24.3369C29.6835 26.5361 28.2459 28.6854 26.7556 30.9156Z" fill="white"/>
<path d="M25.1649 29.7883C24.8587 29.4649 24.4975 29.0964 24.1602 28.7089C24.1052 28.6447 24.1195 28.464 24.1698 28.3736C25.3228 26.3432 26.648 24.4293 28.1646 22.6508C28.234 22.57 28.4373 22.532 28.5473 22.57C28.7722 22.6485 28.9827 22.7816 29.186 22.9076C29.3654 23.0194 29.5305 23.1525 29.6429 23.2357C28.1598 25.4064 26.691 27.5534 25.1625 29.7859L25.1649 29.7883Z" fill="white"/>
<path d="M23.8178 28.3715C23.0403 27.846 22.6911 26.788 23.2126 25.9036C23.9015 24.7362 24.6765 23.6092 25.509 22.537C26.0975 21.7785 27.0447 21.7738 28.0135 22.3253C26.6237 24.3273 25.2315 26.3339 23.8178 28.3715Z" fill="white"/>
<path d="M31.444 24.4482C31.7717 24.8952 32.066 25.2684 32.3171 25.6679C32.3626 25.7416 32.2645 25.9437 32.1856 26.053C31.3459 27.2157 30.4704 28.3521 29.6595 29.5338C29.2839 30.0806 29.0112 30.6964 28.7194 31.2955C28.6022 31.5381 28.473 31.607 28.2242 31.5095C27.8439 31.3621 27.4588 31.2337 27.0449 31.0863C28.2553 28.7088 29.7671 26.6213 31.444 24.4458V24.4482Z" fill="white"/>
<path d="M32.5162 25.9771C32.9372 26.3456 33.052 26.8116 33.1333 27.2871C33.1477 27.3703 33.052 27.4916 32.9778 27.5653C31.8512 28.7136 30.9828 30.0332 30.3178 31.493C30.258 31.6214 30.0834 31.7783 29.9566 31.783C29.5715 31.7949 29.1863 31.7379 28.751 31.7022C29.6839 29.4982 31.0474 27.7174 32.5162 25.9771Z" fill="white"/>
<path d="M23.8775 21.4739C23.8847 22.6103 22.5164 24.0488 21.4065 24.0678C21.1816 24.0702 20.8993 23.9513 20.7414 23.792C20.4113 23.4639 20.5501 23.0526 21.0189 22.9812C22.105 22.8196 22.5642 22.0896 22.8058 21.1362C22.868 20.889 22.9207 20.5918 23.2508 20.6013C23.5641 20.6108 23.7699 20.8105 23.8249 21.1339C23.8464 21.2599 23.8656 21.3859 23.8799 21.4739H23.8775Z" fill="white"/>
<path d="M30.4541 31.7213C31.1215 30.1165 32.0233 28.7708 33.2433 27.5986C33.5351 28.0718 33.5567 28.5615 33.4825 29.0513C33.4634 29.175 33.3055 29.2962 33.1883 29.3842C32.6477 29.7884 32.229 30.2972 32.0568 30.9367C31.9324 31.3956 31.6358 31.543 31.2507 31.6262C31.0186 31.6761 30.777 31.6857 30.4589 31.7213H30.4541Z" fill="white"/>
<path d="M15.4648 24.7553C15.6586 24.6126 15.8237 24.4914 15.9026 24.4343C16.1346 24.7601 16.3738 25.1143 16.6346 25.4519C16.6776 25.509 16.814 25.5019 16.9097 25.509C17.7756 25.5756 18.6416 25.6469 19.5099 25.6992C19.6295 25.7063 19.773 25.6564 19.8711 25.5874C20.0218 25.4828 20.1462 25.3402 20.2778 25.2118C20.9045 24.596 21.6126 24.1181 22.5048 23.9707C22.7058 24.3915 22.5575 24.6816 22.1101 24.9003C21.5743 25.1642 21.0696 25.49 20.5409 25.7705C20.1175 25.9964 19.6845 26.0606 19.1822 25.9774C18.455 25.8561 17.7063 25.8514 16.9647 25.8181C16.7374 25.8062 16.5939 25.7729 16.4671 25.5375C16.2566 25.15 15.9935 24.7696 15.4648 24.7553Z" fill="white"/>
<path d="M27.6689 21.8307C28.6497 21.6262 29.585 21.4099 30.5299 21.2458C30.7596 21.2054 31.0514 21.2815 31.2619 21.398C31.97 21.7879 32.6661 22.2063 33.3478 22.6391C33.8119 22.9339 34.6037 22.8198 34.9242 22.3752C34.9912 22.5582 35.0582 22.7437 35.1323 22.9458C34.6491 22.689 34.1922 22.9267 33.7162 23.0932C33.6157 23.1288 33.4507 23.0504 33.3406 22.9838C32.6709 22.582 32.0035 22.1754 31.3456 21.757C31.0753 21.5858 30.8337 21.5597 30.5658 21.7594C30.4199 21.8687 30.2309 21.9187 30.0754 22.0138C29.2788 22.4988 28.4966 22.6129 27.6713 21.8283L27.6689 21.8307Z" fill="white"/>
<path d="M22.4521 15.0547C22.6435 15.5968 23.1554 15.6966 23.6219 15.8726C23.7295 15.913 23.8252 16.0533 23.8706 16.1698C24.2055 17.0257 24.5452 17.8792 24.8394 18.7494C24.9303 19.0181 24.9447 19.3438 24.8945 19.6244C24.7605 20.3757 24.5835 21.1198 24.3945 21.8593C24.3491 22.0399 24.3275 22.349 24.0668 22.2753C23.9998 21.7261 23.9065 21.2268 23.8898 20.7275C23.8826 20.504 23.9807 20.2473 24.1075 20.0571C24.6026 19.3105 24.5954 18.6044 24.1218 17.8341C23.8826 17.4465 23.8013 16.9591 23.6649 16.5145C23.4879 15.9415 22.8085 15.5373 22.2607 15.6705C22.3205 15.4826 22.3827 15.2782 22.4521 15.0547Z" fill="white"/>
<path d="M25.124 21.8069C25.7914 21.0746 26.3464 20.2876 27.0736 19.7289C27.5233 19.3817 28.2386 19.3627 28.839 19.2224C29.071 19.1678 29.3246 19.1511 29.5638 19.1749C30.1475 19.232 30.6235 19.1012 30.8938 18.533C30.9751 18.3594 31.0493 18.1811 31.1258 18.0146C31.2454 18.0979 31.4153 18.2167 31.6043 18.3475C31.0541 18.3879 30.8675 18.8468 30.5828 19.2177C30.4824 19.3461 30.2719 19.4364 30.0996 19.4578C29.3246 19.5601 28.5424 19.61 27.7697 19.7265C27.5903 19.7526 27.3822 19.931 27.2817 20.095C26.9851 20.5777 26.7315 21.0865 26.4636 21.5881C26.344 21.814 26.2124 21.9281 25.9182 21.8235C25.7221 21.7545 25.4781 21.8092 25.124 21.8092V21.8069Z" fill="white"/>
<path d="M25.7921 34.9289C26.1844 34.3915 26.0719 33.6069 25.6342 33.2146C25.084 32.7249 24.5601 32.2042 24.0171 31.7025C23.7085 31.4172 23.5411 31.0748 23.5124 30.6588C23.4621 29.9027 23.4071 29.1466 23.3545 28.3525C24.1248 28.7448 24.2802 29.0325 24.1822 29.7791C24.1654 29.9051 24.1822 30.043 24.1391 30.1571C23.8329 30.9417 24.096 31.5337 24.73 32.0306C25.1318 32.3468 25.4906 32.7154 25.8925 33.0316C26.1293 33.217 26.2274 33.3882 26.182 33.7068C26.1222 34.1157 26.103 34.5556 26.5719 34.9265H25.7968L25.7921 34.9289Z" fill="white"/>
<path d="M21.12 32.758C20.9358 32.5987 20.7827 32.4679 20.6416 32.3466C21.2372 32.0899 21.5386 31.4456 21.3927 30.7703C21.242 30.0666 21.1057 29.3581 21.0148 28.6448C20.9813 28.3809 21.0291 28.0623 21.1535 27.8293C21.5506 27.0827 22.0027 26.3647 22.4405 25.6182C22.5768 25.9177 22.7275 26.1507 22.7802 26.4051C22.8113 26.5525 22.7299 26.7689 22.6247 26.8902C22.2658 27.292 21.8616 27.6557 21.5028 28.0575C21.3903 28.1835 21.2946 28.3999 21.3162 28.5592C21.4286 29.3414 21.5697 30.1189 21.7276 30.894C21.785 31.1745 21.7946 31.3814 21.5674 31.6144C21.2707 31.9163 20.9813 32.2563 21.12 32.7603V32.758Z" fill="white"/>
<path d="M25.7632 21.9782C24.5671 23.2241 23.6964 24.6577 22.8448 26.1057C22.3162 24.9359 24.5289 21.8546 25.7632 21.9782Z" fill="white"/>
<path d="M22.3519 20.7513C22.3807 21.2601 22.5098 21.7784 22.0769 22.2159C21.8687 22.4275 21.6869 22.6106 21.3449 22.5131C21.1966 22.4703 21.0171 22.5345 20.8497 22.5511C20.8401 21.7119 21.5865 20.6277 22.3496 20.7537L22.3519 20.7513Z" fill="white"/>
<path d="M32.1357 31.2385C32.3678 30.5133 32.7314 29.9332 33.3485 29.5195C33.7385 30.5942 33.3151 31.2123 32.1357 31.2385Z" fill="white"/>
<path d="M15.8838 22.0018C16.3885 22.2918 16.7569 21.9946 17.1588 21.7783C18.1037 21.2695 19.094 20.9461 20.192 21.1696C20.3427 21.2005 20.4886 21.2528 20.6345 21.2932C20.625 21.3408 20.6154 21.3907 20.6058 21.4383C20.3834 21.405 20.1609 21.3741 19.9408 21.336C18.8476 21.1458 17.9003 21.5429 16.9746 22.0469C16.4316 22.3441 16.4077 22.3394 15.8838 21.9994V22.0018Z" fill="white"/>
<path d="M21.0476 20.8439C20.904 20.7132 20.7988 20.6466 20.7294 20.5515C20.1721 19.7883 19.8228 18.9538 19.8539 17.9885C19.8611 17.7341 19.8515 17.4773 19.8587 17.2229C19.8714 16.7347 19.7734 16.3075 19.5645 15.9414C20.0046 16.2338 20.0907 16.3527 20.0381 16.8092C19.873 18.2167 20.0596 19.522 21.0595 20.6181C21.0787 20.6395 21.0595 20.6941 21.05 20.8415L21.0476 20.8439Z" fill="white"/>
<path d="M24.1337 22.5798C23.7127 23.1718 23.2917 23.7638 22.8491 24.3843C22.6291 24.1228 22.6697 23.8779 22.8707 23.6378C23.1506 23.3026 23.4233 22.9602 23.7199 22.644C23.806 22.5512 23.9687 22.5298 24.0954 22.4775C24.1074 22.5132 24.1217 22.5465 24.1337 22.5822V22.5798Z" fill="white"/>
</svg>
