<svg width="65" height="80" viewBox="0 0 65 80" fill="none" xmlns="http://www.w3.org/2000/svg">
<g clip-path="url(#clip0_396_1637)">
<path d="M0 5.22311C0.061449 4.90441 0.109789 4.58326 0.187624 4.26865C0.802114 1.77384 3.06425 0.00139887 5.64839 0.00139887C19.7767 -0.00105263 33.9059 -0.000235464 48.0342 -0.000235464C51.4623 -0.000235464 53.8948 2.42594 53.8981 5.85886C53.9022 10.9335 53.8989 16.0089 53.8989 21.0835C53.8989 25.4644 53.8989 29.8452 53.8989 34.2261V34.7352C53.4614 34.7866 53.0296 34.776 52.6388 34.8953C51.8891 35.1249 51.1558 35.4118 50.4291 35.71C50.2194 35.7958 50.0768 35.8122 49.8703 35.7084C49.4345 35.4886 48.9707 35.3251 48.5348 35.1061C48.4128 35.0449 48.3243 34.8806 48.2628 34.745C48.2219 34.6551 48.2546 34.5309 48.2546 34.4222C48.2546 25.0207 48.2546 15.6191 48.2546 6.21842C48.2546 6.04354 48.2546 5.86867 48.2546 5.66029H5.67952V68.3314H39.8124V73.9568H39.3626C28.1657 73.9568 16.9689 73.9568 5.77292 73.9568C2.78323 73.9568 0.470289 71.9286 0.0704615 68.9663C0.0598103 68.8871 0.0245796 68.8119 0.000819319 68.7343C0.000819319 47.5639 0.000819319 26.3935 0.000819319 5.22311H0Z" fill="#014784"/>
<path d="M44.6775 80C44.2842 79.7777 44.14 79.4476 44.1408 78.9932C44.1506 74.0984 44.1474 69.2044 44.1482 64.3095C44.1482 64.2041 44.1621 64.0995 44.1719 63.95C44.4677 64.2613 44.7086 64.5694 45.0027 64.8145C46.0367 65.6775 47.2133 65.8278 48.4463 65.3506C49.0764 65.1071 49.6745 64.7712 50.2603 64.4305C50.5995 64.2327 50.8633 64.2466 51.1943 64.4378C51.7449 64.7565 52.3045 65.0785 52.8952 65.3097C54.5781 65.9684 55.9808 65.5434 57.0697 64.1003C57.1156 64.0398 57.1688 63.9843 57.2761 63.8593C57.2761 64.0635 57.2761 64.1804 57.2761 64.2964C57.2761 69.1913 57.272 74.0853 57.2827 78.9801C57.2835 79.4525 57.141 79.7957 56.7067 79.9992H56.2979C56.1455 79.888 55.98 79.7908 55.8415 79.6641C54.7264 78.6459 53.6162 77.6204 52.5028 76.5997C51.9129 76.0588 51.3189 75.5227 50.7068 74.967C50.2046 75.4263 49.7261 75.8667 49.2444 76.3039C47.8867 77.5362 46.5275 78.7669 45.1691 79.9992H44.6783L44.6775 80Z" fill="#014784"/>
<path d="M39.5158 57.6006C39.6067 57.0874 39.7419 56.2997 39.8894 55.5144C39.9688 55.0935 39.8763 54.7307 39.5698 54.4308C39.22 54.0884 38.8587 53.7558 38.5072 53.4151C38.3122 53.2255 38.1155 53.0359 37.9377 52.8308C37.1078 51.869 37.0922 50.8516 37.9279 49.8939C38.3023 49.4649 38.7161 49.0604 39.1594 48.7033C39.8328 48.1607 40.0434 47.5216 39.8164 46.6865C39.6681 46.1398 39.5608 45.5702 39.5305 45.0056C39.4535 43.5935 40.0721 42.8499 41.469 42.617C42.086 42.514 42.7078 42.4429 43.3297 42.3727C43.8327 42.3155 44.1924 42.076 44.4096 41.6184C44.6881 41.0301 44.9528 40.4343 45.2575 39.8591C45.5845 39.2437 46.0138 38.6807 46.7577 38.6006C47.1969 38.5532 47.6893 38.6088 48.0989 38.7681C48.7405 39.0174 49.3386 39.3818 49.9424 39.7218C50.4668 40.0168 50.9674 40.016 51.4877 39.7218C52.0317 39.4145 52.5733 39.0966 53.1386 38.8327C54.4315 38.2296 55.3884 38.5263 56.1119 39.7577C56.3929 40.2358 56.6518 40.7367 56.8378 41.2572C57.1401 42.1022 57.7604 42.3923 58.5895 42.4544C59.1434 42.4961 59.7022 42.5639 60.2413 42.693C61.5374 43.0043 62.1314 43.9367 61.9086 45.2516C61.807 45.853 61.6923 46.4528 61.5669 47.0501C61.4539 47.5887 61.5751 48.0389 61.9897 48.414C62.4338 48.816 62.8811 49.2165 63.2981 49.6455C64.4132 50.792 64.4067 51.9278 63.2899 53.0743C62.986 53.3865 62.6837 53.7076 62.3371 53.9675C61.603 54.5182 61.3834 55.203 61.6292 56.079C61.7529 56.5211 61.816 56.9812 61.8897 57.4364C62.1241 58.8754 61.4653 59.8192 60.0291 60.0774C59.4277 60.1853 58.8181 60.2572 58.2102 60.3218C57.6325 60.3831 57.2229 60.6421 56.9755 61.1798C56.6748 61.8319 56.3872 62.4963 56.016 63.1091C55.3819 64.1559 54.4446 64.4289 53.309 63.9639C53.0583 63.8609 52.8182 63.731 52.5798 63.6027C52.2324 63.4156 51.8867 63.2252 51.5483 63.0233C50.9928 62.6924 50.4496 62.694 49.8916 63.0233C49.4475 63.2865 49.001 63.5529 48.5324 63.7661C48.1538 63.9386 47.7499 64.0897 47.3419 64.1527C46.6184 64.2646 46.0359 63.9508 45.6074 63.3764C45.4058 63.1059 45.2412 62.8068 45.0789 62.5093C44.9421 62.2601 44.8004 62.0051 44.7193 61.7355C44.3915 60.6429 43.6214 60.2425 42.5349 60.2294C42.0655 60.2237 41.5878 60.1216 41.1298 60.0039C39.9942 59.713 39.5002 59.0429 39.5166 57.5998L39.5158 57.6006ZM55.599 51.3746C55.6113 48.6877 53.4335 46.5067 50.7273 46.4953C48.0531 46.4838 45.8458 48.6534 45.8262 51.3109C45.8065 53.9912 47.9965 56.2237 50.6626 56.2417C53.3754 56.2604 55.5867 54.0802 55.599 51.3746Z" fill="#014784"/>
<path d="M26.9622 24.4088C31.5037 24.4088 36.0452 24.4056 40.5867 24.4105C42.036 24.4121 42.9537 25.8773 42.2949 27.1374C41.9525 27.7919 41.3896 28.1425 40.6456 28.1572C39.8689 28.1727 39.0914 28.1613 38.3139 28.1613C30.0084 28.1613 21.703 28.1621 13.3975 28.1605C11.8875 28.1605 10.9461 26.6977 11.6368 25.4148C12.0031 24.7341 12.6003 24.4088 13.3787 24.4088C17.9063 24.4105 22.4338 24.4097 26.9622 24.4097V24.4088Z" fill="#014784"/>
<path d="M23.3342 15.1674C26.6328 15.1674 29.9314 15.1642 33.2308 15.1691C34.2566 15.1707 35.0079 15.7403 35.1849 16.6196C35.4249 17.8134 34.6122 18.8472 33.3774 18.9183C33.2824 18.924 33.1865 18.9199 33.0915 18.9199C26.5755 18.9199 20.0602 18.9191 13.5442 18.9215C12.9813 18.9215 12.4635 18.812 12.0366 18.419C11.4746 17.9009 11.2763 17.1139 11.5303 16.4079C11.7966 15.6659 12.434 15.1789 13.2345 15.1764C16.6011 15.1658 19.9685 15.1724 23.335 15.1724V15.1674H23.3342Z" fill="#014784"/>
</g>
<defs>
<clipPath id="clip0_396_1637">
<rect width="64.1322" height="80" fill="white"/>
</clipPath>
</defs>
</svg>
