<svg width="16" height="20" viewBox="0 0 16 20" fill="none" xmlns="http://www.w3.org/2000/svg">
<path d="M8 0C3.88998 0 0.549988 3.34 0.549988 7.45C0.549988 12.34 6.73 19.26 6.99 19.55C7.25 19.84 7.62 20 8 20C8.38 20 8.75 19.84 9.01 19.55C9.67 18.82 15.45 12.23 15.45 7.45C15.45 3.34 12.11 0 8 0ZM8 18.43C7.19 17.49 2.04999 11.45 2.04999 7.45C2.04999 4.17 4.71999 1.5 8 1.5C11.28 1.5 13.95 4.17 13.95 7.45C13.95 10.83 10.12 16.03 8 18.43Z" fill="white"/>
<path d="M8 0C3.88998 0 0.549988 3.34 0.549988 7.45C0.549988 12.34 6.73 19.26 6.99 19.55C7.25 19.84 7.62 20 8 20C8.38 20 8.75 19.84 9.01 19.55C9.67 18.82 15.45 12.23 15.45 7.45C15.45 3.34 12.11 0 8 0ZM4.87999 7.45C4.87999 5.73 6.28 4.33 8 4.33C9.72 4.33 11.12 5.73 11.12 7.45C11.12 9.17 9.72 10.57 8 10.57C6.28 10.57 4.87999 9.17 4.87999 7.45Z" fill="white"/>
</svg>
