<svg width="260" height="75" viewBox="0 0 260 75" fill="none" xmlns="http://www.w3.org/2000/svg">
<path d="M37.5958 64.2656C52.4331 64.2656 64.4611 52.272 64.4611 37.4771C64.4611 22.6823 52.4331 10.6887 37.5958 10.6887C22.7584 10.6887 10.7304 22.6823 10.7304 37.4771C10.7304 52.272 22.7584 64.2656 37.5958 64.2656Z" fill="#EC2227"/>
<path d="M75.1915 36.9211C75.1129 47.3356 71.8208 55.9253 65.058 63.0822C57.0299 71.5757 47.0501 75.482 35.3867 74.8975C26.347 74.4449 18.4582 71.0624 11.8813 64.8536C3.35987 56.8057 -0.557695 46.8331 0.0642546 35.1853C0.553951 26.0324 4.06761 18.0843 10.4837 11.487C18.5512 3.19311 28.4702 -0.559982 39.9834 0.0673158C48.9374 0.55561 56.7582 3.94872 63.2887 10.1041C71.1631 17.5247 75.07 26.699 75.1915 36.9211ZM37.5671 72.1246C56.819 72.0248 72.2926 56.6988 72.3034 37.4949C72.3141 18.3195 56.8869 2.86521 37.5993 2.85451C18.3367 2.84382 2.87018 18.2625 2.85945 37.4592C2.84873 56.6417 18.2831 71.9998 37.5635 72.121L37.5671 72.1246Z" fill="#242157"/>
<path d="M37.5958 54.7064C47.1386 54.7064 54.8745 46.9926 54.8745 37.4771C54.8745 27.9616 47.1386 20.2478 37.5958 20.2478C28.053 20.2478 20.317 27.9616 20.317 37.4771C20.317 46.9926 28.053 54.7064 37.5958 54.7064Z" fill="#242157"/>
<path d="M39.9799 46.3449C39.4831 45.9813 38.879 45.5679 38.3178 45.1009C38.2106 45.0118 38.1891 44.6697 38.2678 44.52C39.9799 41.2481 42.1246 38.2684 44.4479 35.4099C44.5409 35.2959 44.8912 35.2353 45.0091 35.3172C45.5667 35.6915 46.0886 36.1263 46.5533 36.4827C44.355 39.7796 42.2068 43.0016 39.9799 46.3449Z" fill="white"/>
<path d="M37.6029 44.6554C37.1454 44.1707 36.6056 43.6182 36.1017 43.0373C36.0194 42.941 36.0409 42.6702 36.116 42.5347C37.8388 39.4909 39.8191 36.6217 42.0852 33.9557C42.1889 33.8345 42.4927 33.7775 42.6571 33.8345C42.9931 33.9521 43.3077 34.1517 43.6115 34.3406C43.8796 34.5082 44.1262 34.7078 44.2942 34.8325C42.0781 38.0866 39.8834 41.3051 37.5993 44.6518L37.6029 44.6554Z" fill="white"/>
<path d="M35.5905 42.5311C34.4288 41.7435 33.907 40.1574 34.6862 38.8315C35.7156 37.0815 36.8738 35.3921 38.1177 33.7846C38.997 32.6476 40.4124 32.6405 41.8601 33.4674C39.7833 36.4685 37.703 39.4766 35.5905 42.5311Z" fill="white"/>
<path d="M46.9858 36.6502C47.4755 37.3203 47.9151 37.8799 48.2904 38.4787C48.3584 38.5892 48.2118 38.8921 48.0939 39.0561C46.8392 40.799 45.531 42.5026 44.3193 44.274C43.7581 45.0938 43.3506 46.0169 42.9145 46.9151C42.7394 47.2787 42.5463 47.382 42.1746 47.2359C41.6063 47.0149 41.0308 46.8224 40.4124 46.6015C42.2211 43.0373 44.4801 39.9079 46.9858 36.6467V36.6502Z" fill="white"/>
<path d="M48.5871 38.942C49.2162 39.4945 49.3878 40.193 49.5093 40.9059C49.5308 41.0306 49.3878 41.2124 49.277 41.3229C47.5935 43.0444 46.2959 45.0225 45.3022 47.2109C45.2129 47.4034 44.952 47.6386 44.7625 47.6458C44.187 47.6636 43.6115 47.5781 42.961 47.5246C44.355 44.2206 46.3924 41.551 48.5871 38.942Z" fill="white"/>
<path d="M35.6799 32.1914C35.6906 33.8951 33.646 36.0514 31.9875 36.0799C31.6515 36.0835 31.2297 35.9053 30.9938 35.6665C30.5006 35.1746 30.7079 34.558 31.4085 34.4511C33.0312 34.2087 33.7175 33.1145 34.0786 31.6853C34.1715 31.3146 34.2501 30.8691 34.7434 30.8834C35.2116 30.8976 35.519 31.197 35.6013 31.6817C35.6334 31.8706 35.662 32.0595 35.6835 32.1914H35.6799Z" fill="white"/>
<path d="M45.506 47.5531C46.5032 45.1473 47.8508 43.1299 49.6738 41.3728C50.1098 42.0821 50.142 42.8163 50.0312 43.5505C50.0026 43.7359 49.7667 43.9176 49.5916 44.0495C48.7837 44.6554 48.1582 45.4182 47.9008 46.3769C47.715 47.0648 47.2717 47.2858 46.6963 47.4105C46.3495 47.4854 45.9885 47.4996 45.5131 47.5531H45.506Z" fill="white"/>
<path d="M23.1086 37.11C23.3982 36.8962 23.6448 36.7144 23.7628 36.6289C24.1095 37.1171 24.4669 37.6482 24.8565 38.1543C24.9209 38.2399 25.1246 38.2292 25.2676 38.2399C26.5615 38.3397 27.8555 38.4466 29.153 38.525C29.3317 38.5357 29.5462 38.4608 29.6927 38.3575C29.9179 38.2007 30.1038 37.9868 30.3004 37.7943C31.2369 36.8712 32.2949 36.1548 33.6282 35.9338C33.9284 36.5647 33.7068 36.9995 33.0384 37.3274C32.2377 37.7231 31.4835 38.2114 30.6936 38.6319C30.0609 38.9705 29.4139 39.0668 28.6633 38.942C27.5767 38.7602 26.4579 38.7531 25.3498 38.7032C25.0102 38.6854 24.7958 38.6355 24.6063 38.2826C24.2918 37.7017 23.8986 37.1314 23.1086 37.11Z" fill="white"/>
<path d="M41.3453 32.7261C42.8109 32.4195 44.2085 32.0952 45.6203 31.8493C45.9635 31.7887 46.3996 31.9027 46.7141 32.0774C47.7722 32.6619 48.8123 33.2892 49.831 33.9379C50.5245 34.3798 51.7076 34.2088 52.1866 33.5423C52.2867 33.8167 52.3867 34.0947 52.4975 34.3977C51.7755 34.0127 51.0928 34.3692 50.3815 34.6186C50.2314 34.6721 49.9847 34.5545 49.8203 34.4547C48.8195 33.8523 47.8222 33.2429 46.8392 32.6156C46.4353 32.359 46.0743 32.3197 45.674 32.6191C45.4559 32.7831 45.1735 32.8579 44.9412 33.0005C43.7509 33.7276 42.5821 33.8987 41.3489 32.7225L41.3453 32.7261Z" fill="white"/>
<path d="M33.5495 22.5681C33.8355 23.3808 34.6004 23.5304 35.2974 23.7942C35.4582 23.8548 35.6012 24.0651 35.6691 24.2397C36.1696 25.5228 36.6771 26.8024 37.1168 28.1069C37.2526 28.5096 37.2741 28.9979 37.199 29.4185C36.9988 30.5448 36.7343 31.6604 36.4519 32.7688C36.384 33.0397 36.3519 33.5031 35.9622 33.3926C35.8622 32.5692 35.7228 31.8208 35.6977 31.0723C35.687 30.7372 35.8336 30.3523 36.023 30.0672C36.7629 28.948 36.7522 27.8895 36.0445 26.7347C35.687 26.1537 35.5655 25.423 35.3617 24.7565C35.0972 23.8976 34.0821 23.2916 33.2635 23.4912C33.3529 23.2097 33.4458 22.9031 33.5495 22.5681Z" fill="white"/>
<path d="M37.5422 32.6904C38.5394 31.5926 39.3687 30.4129 40.4553 29.5753C41.1273 29.0549 42.1961 29.0264 43.0933 28.8161C43.44 28.7342 43.8189 28.7092 44.1763 28.7449C45.0485 28.8304 45.7598 28.6344 46.1637 27.7825C46.2852 27.5223 46.396 27.255 46.5104 27.0055C46.6891 27.1303 46.9429 27.3085 47.2253 27.5045C46.4032 27.5651 46.1244 28.253 45.699 28.809C45.5489 29.0015 45.2343 29.1369 44.977 29.169C43.8189 29.3222 42.65 29.3971 41.4955 29.5717C41.2274 29.6109 40.9164 29.8783 40.7663 30.1242C40.3231 30.8477 39.9442 31.6105 39.5439 32.3625C39.3651 32.7011 39.1685 32.8722 38.7289 32.7154C38.4358 32.612 38.0712 32.694 37.5422 32.694V32.6904Z" fill="white"/>
<path d="M38.5394 52.3612C39.1256 51.5557 38.9576 50.3795 38.3035 49.7914C37.4814 49.0572 36.6986 48.2766 35.8872 47.5246C35.4261 47.0969 35.1759 46.5836 35.133 45.9599C35.0579 44.8265 34.9757 43.6931 34.8971 42.5026C36.0481 43.0907 36.2804 43.522 36.1338 44.6411C36.1088 44.83 36.1338 45.0368 36.0695 45.2078C35.612 46.384 36.0052 47.2715 36.9524 48.0164C37.5529 48.4905 38.0891 49.0429 38.6896 49.517C39.0434 49.795 39.19 50.0516 39.1221 50.5292C39.0327 51.1422 39.0041 51.8016 39.7047 52.3576H38.5466L38.5394 52.3612Z" fill="white"/>
<path d="M31.5586 49.1071C31.2833 48.8683 31.0546 48.6722 30.8437 48.4905C31.7337 48.1055 32.1841 47.1396 31.9661 46.1274C31.7409 45.0724 31.5371 44.0103 31.4013 42.941C31.3513 42.5454 31.4227 42.0678 31.6086 41.7185C32.202 40.5994 32.8775 39.523 33.5317 38.4038C33.7354 38.8529 33.9606 39.2022 34.0392 39.5836C34.0857 39.8045 33.9642 40.1289 33.8069 40.3107C33.2707 40.913 32.6666 41.4583 32.1305 42.0607C31.9625 42.2496 31.8195 42.5739 31.8517 42.8127C32.0197 43.9853 32.2306 45.1508 32.4665 46.3128C32.5523 46.7333 32.5666 47.0434 32.227 47.3927C31.7838 47.8454 31.3513 48.355 31.5586 49.1106V49.1071Z" fill="white"/>
<path d="M38.4965 32.947C36.7093 34.8147 35.4082 36.9639 34.1357 39.1345C33.3458 37.3809 36.6521 32.7617 38.4965 32.947Z" fill="white"/>
<path d="M33.3994 31.1079C33.4423 31.8707 33.6353 32.6476 32.9884 33.3035C32.6774 33.6207 32.4057 33.8951 31.8946 33.749C31.673 33.6848 31.4049 33.7811 31.1547 33.806C31.1404 32.5478 32.2556 30.9226 33.3958 31.1115L33.3994 31.1079Z" fill="white"/>
<path d="M48.0188 46.8296C48.3655 45.7425 48.9088 44.8728 49.831 44.2527C50.4137 45.8637 49.781 46.7904 48.0188 46.8296Z" fill="white"/>
<path d="M23.7342 32.9827C24.4884 33.4175 25.0389 32.972 25.6394 32.6476C27.0513 31.8849 28.5311 31.4002 30.1717 31.7352C30.3969 31.7815 30.615 31.86 30.833 31.9205C30.8187 31.9918 30.8044 32.0667 30.7901 32.138C30.4577 32.0881 30.1253 32.0417 29.7964 31.9847C28.1629 31.6996 26.7474 32.2948 25.3641 33.0504C24.5527 33.4959 24.517 33.4888 23.7342 32.9791V32.9827Z" fill="white"/>
<path d="M31.4514 31.2469C31.2369 31.0509 31.0796 30.9511 30.976 30.8085C30.1431 29.6644 29.6213 28.4134 29.6677 26.9663C29.6785 26.585 29.6642 26.2 29.6749 25.8187C29.6939 25.0868 29.5474 24.4464 29.2352 23.8976C29.8929 24.3359 30.0216 24.5142 29.943 25.1985C29.6963 27.3085 29.9751 29.2652 31.4692 30.9083C31.4978 30.9404 31.4692 31.0224 31.4549 31.2434L31.4514 31.2469Z" fill="white"/>
<path d="M36.0623 33.8488C35.4332 34.7363 34.8041 35.6238 34.1429 36.554C33.814 36.1619 33.8748 35.7948 34.175 35.4349C34.5932 34.9323 35.0007 34.4191 35.444 33.945C35.5726 33.806 35.8157 33.7739 36.0051 33.6955C36.023 33.749 36.0445 33.7989 36.0623 33.8524V33.8488Z" fill="white"/>
<path d="M91.107 33.31C89.4537 33.31 88.193 32.845 87.325 31.915C86.457 30.9643 86.023 29.6107 86.023 27.854V16.446C86.023 14.6893 86.457 13.346 87.325 12.416C88.193 11.4653 89.4537 10.99 91.107 10.99C92.7603 10.99 94.021 11.4653 94.889 12.416C95.757 13.346 96.191 14.6893 96.191 16.446V18.306H92.967V16.229C92.967 14.803 92.378 14.09 91.2 14.09C90.022 14.09 89.433 14.803 89.433 16.229V28.102C89.433 29.5073 90.022 30.21 91.2 30.21C92.378 30.21 92.967 29.5073 92.967 28.102V23.855H91.262V20.755H96.191V27.854C96.191 29.6107 95.757 30.9643 94.889 31.915C94.021 32.845 92.7603 33.31 91.107 33.31ZM99.0004 11.3H104.053C105.81 11.3 107.091 11.7133 107.897 12.54C108.703 13.346 109.106 14.5963 109.106 16.291V17.624C109.106 19.8767 108.362 21.3027 106.874 21.902V21.964C107.701 22.212 108.28 22.7183 108.61 23.483C108.962 24.2477 109.137 25.2707 109.137 26.552V30.365C109.137 30.985 109.158 31.4913 109.199 31.884C109.241 32.256 109.344 32.628 109.509 33H106.037C105.913 32.6487 105.831 32.318 105.789 32.008C105.748 31.698 105.727 31.14 105.727 30.334V26.366C105.727 25.374 105.562 24.6817 105.231 24.289C104.921 23.8963 104.374 23.7 103.588 23.7H102.41V33H99.0004V11.3ZM103.65 20.6C104.332 20.6 104.839 20.4243 105.169 20.073C105.521 19.7217 105.696 19.1327 105.696 18.306V16.632C105.696 15.8467 105.552 15.2783 105.262 14.927C104.994 14.5757 104.56 14.4 103.96 14.4H102.41V20.6H103.65ZM114.758 11.3H119.377L122.911 33H119.501L118.881 28.691V28.753H115.006L114.386 33H111.224L114.758 11.3ZM118.478 25.808L116.959 15.082H116.897L115.409 25.808H118.478ZM125.186 11.3H129.464L132.781 24.289H132.843V11.3H135.881V33H132.378L128.286 17.159H128.224V33H125.186V11.3ZM139.035 11.3H144.243C145.938 11.3 147.209 11.7547 148.056 12.664C148.904 13.5733 149.327 14.9063 149.327 16.663V27.637C149.327 29.3937 148.904 30.7267 148.056 31.636C147.209 32.5453 145.938 33 144.243 33H139.035V11.3ZM144.181 29.9C144.739 29.9 145.163 29.7347 145.452 29.404C145.762 29.0733 145.917 28.536 145.917 27.792V16.508C145.917 15.764 145.762 15.2267 145.452 14.896C145.163 14.5653 144.739 14.4 144.181 14.4H142.445V29.9H144.181ZM157.834 11.3H162.887C164.643 11.3 165.925 11.7133 166.731 12.54C167.537 13.346 167.94 14.5963 167.94 16.291V17.624C167.94 19.8767 167.196 21.3027 165.708 21.902V21.964C166.534 22.212 167.113 22.7183 167.444 23.483C167.795 24.2477 167.971 25.2707 167.971 26.552V30.365C167.971 30.985 167.991 31.4913 168.033 31.884C168.074 32.256 168.177 32.628 168.343 33H164.871C164.747 32.6487 164.664 32.318 164.623 32.008C164.581 31.698 164.561 31.14 164.561 30.334V26.366C164.561 25.374 164.395 24.6817 164.065 24.289C163.755 23.8963 163.207 23.7 162.422 23.7H161.244V33H157.834V11.3ZM162.484 20.6C163.166 20.6 163.672 20.4243 164.003 20.073C164.354 19.7217 164.53 19.1327 164.53 18.306V16.632C164.53 15.8467 164.385 15.2783 164.096 14.927C163.827 14.5757 163.393 14.4 162.794 14.4H161.244V20.6H162.484ZM170.957 11.3H174.367V33H170.957V11.3ZM176.642 11.3H180.083L182.315 28.133H182.377L184.609 11.3H187.74L184.454 33H179.928L176.642 11.3ZM189.997 11.3H199.297V14.4H193.407V20.135H198.088V23.235H193.407V29.9H199.297V33H189.997V11.3ZM201.879 11.3H206.932C208.689 11.3 209.97 11.7133 210.776 12.54C211.582 13.346 211.985 14.5963 211.985 16.291V17.624C211.985 19.8767 211.241 21.3027 209.753 21.902V21.964C210.58 22.212 211.159 22.7183 211.489 23.483C211.841 24.2477 212.016 25.2707 212.016 26.552V30.365C212.016 30.985 212.037 31.4913 212.078 31.884C212.12 32.256 212.223 32.628 212.388 33H208.916C208.792 32.6487 208.71 32.318 208.668 32.008C208.627 31.698 208.606 31.14 208.606 30.334V26.366C208.606 25.374 208.441 24.6817 208.11 24.289C207.8 23.8963 207.253 23.7 206.467 23.7H205.289V33H201.879V11.3ZM206.529 20.6C207.211 20.6 207.718 20.4243 208.048 20.073C208.4 19.7217 208.575 19.1327 208.575 18.306V16.632C208.575 15.8467 208.431 15.2783 208.141 14.927C207.873 14.5757 207.439 14.4 206.839 14.4H205.289V20.6H206.529ZM86.271 41.3H91.293C92.9877 41.3 94.2587 41.7547 95.106 42.664C95.9533 43.5733 96.377 44.9063 96.377 46.663V48.802C96.377 50.5587 95.9533 51.8917 95.106 52.801C94.2587 53.7103 92.9877 54.165 91.293 54.165H89.681V63H86.271V41.3ZM91.293 51.065C91.851 51.065 92.2643 50.91 92.533 50.6C92.8223 50.29 92.967 49.763 92.967 49.019V46.446C92.967 45.702 92.8223 45.175 92.533 44.865C92.2643 44.555 91.851 44.4 91.293 44.4H89.681V51.065H91.293ZM97.609 41.3H106.909V44.4H101.019V50.135H105.7V53.235H101.019V59.9H106.909V63H97.609V41.3ZM112.744 63.31C111.091 63.31 109.841 62.845 108.993 61.915C108.146 60.9643 107.722 59.6107 107.722 57.854V56.614H110.946V58.102C110.946 59.5073 111.535 60.21 112.713 60.21C113.292 60.21 113.726 60.0447 114.015 59.714C114.325 59.3627 114.48 58.8047 114.48 58.04C114.48 57.1307 114.274 56.335 113.86 55.653C113.447 54.9503 112.682 54.1133 111.566 53.142C110.161 51.902 109.179 50.786 108.621 49.794C108.063 48.7813 107.784 47.6447 107.784 46.384C107.784 44.6687 108.218 43.346 109.086 42.416C109.954 41.4653 111.215 40.99 112.868 40.99C114.501 40.99 115.731 41.4653 116.557 42.416C117.405 43.346 117.828 44.6893 117.828 46.446V47.345H114.604V46.229C114.604 45.485 114.46 44.9477 114.17 44.617C113.881 44.2657 113.457 44.09 112.899 44.09C111.763 44.09 111.194 44.7823 111.194 46.167C111.194 46.9523 111.401 47.686 111.814 48.368C112.248 49.05 113.023 49.8767 114.139 50.848C115.565 52.088 116.547 53.2143 117.084 54.227C117.622 55.2397 117.89 56.428 117.89 57.792C117.89 59.5693 117.446 60.9333 116.557 61.884C115.689 62.8347 114.418 63.31 112.744 63.31ZM121.891 44.4H118.326V41.3H128.866V44.4H125.301V63H121.891V44.4ZM139.047 63.31C137.415 63.31 136.164 62.845 135.296 61.915C134.449 60.985 134.025 59.6727 134.025 57.978V46.322C134.025 44.6273 134.449 43.315 135.296 42.385C136.164 41.455 137.415 40.99 139.047 40.99C140.68 40.99 141.92 41.455 142.767 42.385C143.635 43.315 144.069 44.6273 144.069 46.322V48.616H140.845V46.105C140.845 44.7617 140.277 44.09 139.14 44.09C138.004 44.09 137.435 44.7617 137.435 46.105V58.226C137.435 59.5487 138.004 60.21 139.14 60.21C140.277 60.21 140.845 59.5487 140.845 58.226V54.909H144.069V57.978C144.069 59.6727 143.635 60.985 142.767 61.915C141.92 62.845 140.68 63.31 139.047 63.31ZM150.479 63.31C148.805 63.31 147.524 62.8347 146.635 61.884C145.746 60.9333 145.302 59.59 145.302 57.854V46.446C145.302 44.71 145.746 43.3667 146.635 42.416C147.524 41.4653 148.805 40.99 150.479 40.99C152.153 40.99 153.434 41.4653 154.323 42.416C155.212 43.3667 155.656 44.71 155.656 46.446V57.854C155.656 59.59 155.212 60.9333 154.323 61.884C153.434 62.8347 152.153 63.31 150.479 63.31ZM150.479 60.21C151.657 60.21 152.246 59.497 152.246 58.071V46.229C152.246 44.803 151.657 44.09 150.479 44.09C149.301 44.09 148.712 44.803 148.712 46.229V58.071C148.712 59.497 149.301 60.21 150.479 60.21ZM157.342 41.3H161.62L164.937 54.289H164.999V41.3H168.037V63H164.534L160.442 47.159H160.38V63H157.342V41.3ZM172.618 44.4H169.053V41.3H179.593V44.4H176.028V63H172.618V44.4ZM180.624 41.3H185.677C187.433 41.3 188.715 41.7133 189.521 42.54C190.327 43.346 190.73 44.5963 190.73 46.291V47.624C190.73 49.8767 189.986 51.3027 188.498 51.902V51.964C189.324 52.212 189.903 52.7183 190.234 53.483C190.585 54.2477 190.761 55.2707 190.761 56.552V60.365C190.761 60.985 190.781 61.4913 190.823 61.884C190.864 62.256 190.967 62.628 191.133 63H187.661C187.537 62.6487 187.454 62.318 187.413 62.008C187.371 61.698 187.351 61.14 187.351 60.334V56.366C187.351 55.374 187.185 54.6817 186.855 54.289C186.545 53.8963 185.997 53.7 185.212 53.7H184.034V63H180.624V41.3ZM185.274 50.6C185.956 50.6 186.462 50.4243 186.793 50.073C187.144 49.7217 187.32 49.1327 187.32 48.306V46.632C187.32 45.8467 187.175 45.2783 186.886 44.927C186.617 44.5757 186.183 44.4 185.584 44.4H184.034V50.6H185.274ZM197.436 63.31C195.762 63.31 194.48 62.8347 193.592 61.884C192.703 60.9333 192.259 59.59 192.259 57.854V46.446C192.259 44.71 192.703 43.3667 193.592 42.416C194.48 41.4653 195.762 40.99 197.436 40.99C199.11 40.99 200.391 41.4653 201.28 42.416C202.168 43.3667 202.613 44.71 202.613 46.446V57.854C202.613 59.59 202.168 60.9333 201.28 61.884C200.391 62.8347 199.11 63.31 197.436 63.31ZM197.436 60.21C198.614 60.21 199.203 59.497 199.203 58.071V46.229C199.203 44.803 198.614 44.09 197.436 44.09C196.258 44.09 195.669 44.803 195.669 46.229V58.071C195.669 59.497 196.258 60.21 197.436 60.21ZM204.299 41.3H207.709V59.9H213.32V63H204.299V41.3Z" fill="#1B1F64"/>
</svg>
