<svg width="18" height="18" viewBox="0 0 18 18" fill="none" xmlns="http://www.w3.org/2000/svg">
<path d="M14.6255 11.174L17.2675 12.75C17.5334 12.9092 17.7435 13.1469 17.8688 13.4303C17.9942 13.7138 18.0286 14.0291 17.9675 14.333C17.8487 14.941 17.6065 15.5181 17.2557 16.0287C16.9049 16.5393 16.4531 16.9725 15.9281 17.3014C15.4032 17.6304 14.8163 17.848 14.2039 17.941C13.5914 18.034 12.9664 18.0003 12.3675 17.842C9.44825 17.0416 6.78761 15.4952 4.64715 13.3549C2.50668 11.2146 0.960096 8.55412 0.159457 5.63498C0.0009716 5.03621 -0.0329254 4.41127 0.0598645 3.79887C0.152654 3.18647 0.370156 2.59963 0.698905 2.07468C1.02765 1.54973 1.46065 1.09785 1.9711 0.746999C2.48154 0.396153 3.05857 0.153812 3.66646 0.034979H3.68246C3.98775 -0.0263313 4.30455 0.00888905 4.58893 0.135754C4.8733 0.26262 5.11114 0.474841 5.26946 0.742979L6.83346 3.37598C7.10054 3.82847 7.18377 4.3662 7.06599 4.87826C6.94821 5.39032 6.63839 5.83765 6.20046 6.12798L4.54346 7.23298C5.71636 10.0431 7.94719 12.2793 10.7545 13.459L11.8695 11.794C12.162 11.3573 12.611 11.0496 13.1238 10.9342C13.6366 10.8189 14.1741 10.9047 14.6255 11.174ZM14.7505 6.99998C14.7491 6.00582 14.3536 5.05276 13.6506 4.34979C12.9477 3.64681 11.9946 3.2513 11.0005 3.24998C10.8015 3.24998 10.6108 3.329 10.4701 3.46965C10.3295 3.6103 10.2505 3.80107 10.2505 3.99998C10.2505 4.19889 10.3295 4.38966 10.4701 4.53031C10.6108 4.67096 10.8015 4.74998 11.0005 4.74998C11.597 4.75077 12.1688 4.98808 12.5906 5.40987C13.0124 5.83165 13.2497 6.40349 13.2505 6.99998C13.2505 7.19889 13.3295 7.38966 13.4701 7.53031C13.6108 7.67096 13.8015 7.74998 14.0005 7.74998C14.1994 7.74998 14.3901 7.67096 14.5308 7.53031C14.6714 7.38966 14.7505 7.19889 14.7505 6.99998ZM17.0005 7.74998C16.8015 7.74998 16.6108 7.67096 16.4701 7.53031C16.3295 7.38966 16.2505 7.19889 16.2505 6.99998C16.2489 5.60808 15.6952 4.27364 14.711 3.28942C13.7268 2.3052 12.3924 1.75157 11.0005 1.74998C10.8015 1.74998 10.6108 1.67096 10.4701 1.53031C10.3295 1.38966 10.2505 1.19889 10.2505 0.999979C10.2505 0.801067 10.3295 0.610301 10.4701 0.469649C10.6108 0.328996 10.8015 0.249979 11.0005 0.249979C12.79 0.252096 14.5057 0.963935 15.7711 2.22935C17.0365 3.49476 17.7483 5.21042 17.7505 6.99998C17.7505 7.19889 17.6714 7.38966 17.5308 7.53031C17.3901 7.67096 17.1994 7.74998 17.0005 7.74998Z" fill="white"/>
</svg>
