<svg width="100" height="100" viewBox="0 0 100 100" fill="none" xmlns="http://www.w3.org/2000/svg">
<path fill-rule="evenodd" clip-rule="evenodd" d="M50 100C77.6142 100 100 77.6142 100 50C100 22.3858 77.6142 0 50 0C22.3858 0 0 22.3858 0 50C0 77.6142 22.3858 100 50 100Z" fill="#004683"/>
<path d="M29 55.7137C29 61.2628 31.0692 64.7898 35.2075 66.2946C36.3361 66.7649 37.5588 67 38.8755 67C42.6376 67 45.3651 65.213 47.0581 61.639C47.7165 60.3223 48.0456 58.9115 48.0456 57.4066C48.0456 53.3624 46.2116 50.4938 42.5436 48.8008C41.7911 48.5187 41.0858 48.2835 40.4274 48.0954C38.1701 47.4371 36.9945 46.3084 36.9004 44.7095C36.9945 41.888 38.7344 38.6902 42.1203 35.1162L39.2988 33C33.6556 38.9253 30.3167 45.4149 29.2822 52.4689C29.0941 53.5975 29 54.6791 29 55.7137ZM51.7137 55.7137C51.7137 61.2628 53.7828 64.7898 57.9212 66.2946C59.0498 66.7649 60.2725 67 61.5892 67C65.3513 67 68.0788 65.213 69.7718 61.639C70.4301 60.3223 70.7593 58.9115 70.7593 57.4066C70.7593 53.3624 68.9253 50.4938 65.2573 48.8008C64.5048 48.5187 63.7994 48.2835 63.1411 48.0954C60.8838 47.4371 59.7082 46.3084 59.6141 44.7095C59.7082 41.888 61.4481 38.6902 64.834 35.1162L62.0124 33C56.3693 38.9253 53.0304 45.4149 51.9958 52.4689C51.8077 53.5975 51.7137 54.6791 51.7137 55.7137Z" fill="white"/>
</svg>
