<svg width="81" height="80" viewBox="0 0 81 80" fill="none" xmlns="http://www.w3.org/2000/svg">
<g clip-path="url(#clip0_396_1652)">
<path d="M55.4684 68.9405C53.2469 69.8586 51.2132 70.753 49.1345 71.5344C48.2063 71.8842 47.8678 72.3815 47.9048 73.368C47.9656 75.07 47.8625 76.7774 47.8625 78.4794C47.8625 79.4817 47.516 80.0105 46.4 80C42.3564 79.9632 38.3154 79.9632 34.2717 80C33.1689 80.0105 32.7855 79.5133 32.7881 78.4979C32.7881 76.7063 32.7167 74.9122 32.7431 73.1233C32.7537 72.3604 32.5157 71.9421 31.7779 71.6527C29.1253 70.6083 26.486 69.5298 23.8731 68.3907C23.0823 68.046 22.6089 68.217 22.0483 68.7905C20.7603 70.1032 19.3957 71.3423 18.084 72.634C17.4175 73.289 16.8357 73.2838 16.1693 72.6156C13.2866 69.7323 10.3907 66.8648 7.4843 64.0079C6.81785 63.3528 6.78612 62.782 7.4605 62.1111C8.79603 60.7826 10.0787 59.3989 11.4274 58.0835C11.9299 57.5942 12.1018 57.1707 11.8056 56.4867C10.642 53.8007 9.56298 51.0806 8.36496 48.4104C8.19041 48.021 7.56099 47.6291 7.11669 47.5975C5.23372 47.4686 3.34017 47.4397 1.4519 47.4502C0.367605 47.4581 -0.010577 47.0187 1.47229e-06 45.9559C0.0396709 41.9783 0.0370263 38.0007 1.47229e-06 34.023C-0.010577 33.0023 0.420497 32.584 1.39637 32.5735C3.28463 32.5524 5.17554 32.4893 7.0638 32.5051C7.7805 32.5104 8.1719 32.2815 8.4443 31.6028C9.52331 28.93 10.642 26.2729 11.7818 23.6238C12.0621 22.9714 11.9934 22.5242 11.4618 22.0138C10.1369 20.7379 8.89653 19.3726 7.58215 18.0835C6.84959 17.3653 6.73322 16.7576 7.52397 15.9842C10.4093 13.1694 13.276 10.3334 16.1164 7.47386C16.8251 6.76093 17.3911 6.72674 18.1051 7.44492C19.4354 8.77869 20.8344 10.0467 22.1593 11.3831C22.6645 11.8935 23.1008 11.9934 23.7779 11.7014C26.3934 10.5728 29.0248 9.47057 31.68 8.43933C32.4655 8.13417 32.7564 7.74219 32.7405 6.91352C32.7061 5.122 32.7907 3.33048 32.7828 1.53897C32.7802 0.426177 33.28 -0.0131519 34.3934 -0.00525981C38.3471 0.0263087 42.3035 0.0289395 46.2572 -0.00525981C47.3864 -0.0157827 47.8572 0.455115 47.8572 1.54949C47.8572 3.25419 47.9524 4.9589 47.9021 6.6636C47.8731 7.62118 48.1296 8.14469 49.0922 8.51036C51.7157 9.50477 54.2995 10.6018 56.878 11.7119C57.5603 12.0066 57.994 11.8856 58.4939 11.3805C59.7897 10.073 61.1517 8.83394 62.4502 7.5291C63.1669 6.81092 63.754 6.68727 64.5421 7.48175C67.3772 10.3466 70.2493 13.1746 73.1293 15.9947C73.8433 16.6945 73.8618 17.2917 73.1478 17.9967C71.8069 19.3226 70.5349 20.7142 69.1782 22.0191C68.6387 22.5373 68.599 22.9872 68.8767 23.6317C70.0139 26.2808 71.0744 28.9642 72.2645 31.5896C72.4522 32.0053 73.1266 32.4156 73.6053 32.4472C75.401 32.5709 77.2046 32.5603 79.0056 32.5524C80.1269 32.5472 80.6797 32.9129 80.6612 34.1598C80.603 38.0927 80.6188 42.0283 80.6585 45.9612C80.6691 47.0345 80.2671 47.4581 79.1907 47.4449C77.6093 47.4265 76.0225 47.5975 74.4489 47.5081C73.0605 47.4291 72.3253 47.8737 71.8704 49.2338C71.2383 51.1227 70.3524 52.9247 69.5141 54.9109C67.1736 52.8116 64.9415 50.8464 62.7755 48.8155C62.5375 48.5919 62.5243 47.9342 62.6486 47.5554C66.1263 36.7037 62.0033 25.6915 52.2631 19.8961C38.1408 11.491 19.4512 20.2723 17.0552 36.4354C14.8787 51.1095 26.478 64.0053 41.3726 63.3423C43.6205 63.2424 45.8393 62.5031 48.0767 62.098C48.4945 62.0217 49.1372 61.9586 49.354 62.1874C51.3851 64.3473 53.3474 66.5728 55.4684 68.9299V68.9405ZM42.4833 9.99671C42.523 8.86814 41.5021 7.80533 40.3597 7.78165C39.2225 7.75798 38.1699 8.78922 38.1699 9.92831C38.1699 11.0437 39.0955 11.9987 40.2274 12.0487C41.4122 12.0987 42.4436 11.1621 42.4833 9.99671ZM21.2073 18.7912C21.2337 17.5889 20.2658 16.5998 19.0651 16.6077C17.9306 16.6156 16.96 17.5548 16.9256 18.6833C16.8912 19.8329 17.9332 20.8931 19.0916 20.8852C20.2103 20.88 21.1835 19.9145 21.2099 18.7886L21.2073 18.7912ZM19.2132 63.1582C20.3425 63.1345 21.321 62.1664 21.3369 61.0589C21.3554 59.904 20.3134 58.8885 19.1312 58.9096C17.9094 58.9306 17.005 59.9013 17.0552 61.1378C17.1055 62.3032 18.0417 63.1818 19.2106 63.1582H19.2132ZM40.439 71.8527C41.6106 71.8606 42.5441 70.9793 42.5864 69.827C42.6288 68.6485 41.6476 67.6199 40.4707 67.6093C39.2833 67.5988 38.3074 68.5958 38.3312 69.7955C38.355 70.9714 39.2516 71.8448 40.439 71.8527ZM12.4271 39.9184C12.435 38.7109 11.446 37.7218 10.2612 37.756C9.14512 37.7876 8.16661 38.7715 8.15339 39.8764C8.14017 41.0575 9.13984 42.0256 10.3511 42.0046C11.5359 41.9862 12.4192 41.097 12.4271 39.9184ZM72.5686 39.779C72.5686 38.5978 71.6959 37.6902 70.5243 37.6587C69.3316 37.6271 68.3002 38.611 68.3028 39.7817C68.3028 40.9286 69.3712 41.9494 70.5296 41.9152C71.6906 41.8783 72.5712 40.9602 72.5712 39.7817L72.5686 39.779ZM61.5564 20.7327C62.7914 20.759 63.7858 19.8198 63.7752 18.6333C63.7646 17.539 62.7755 16.5314 61.6754 16.4972C60.4932 16.4604 59.5041 17.439 59.4988 18.6465C59.4962 19.8356 60.3531 20.7063 61.5564 20.7327Z" fill="#014784"/>
<path d="M57.9623 40.3157C57.6079 42.3256 57.3382 44.3591 56.8595 46.34C56.64 47.245 56.796 47.7606 57.4731 48.363C64.1878 54.3321 70.8919 60.317 77.5643 66.3334C81.727 70.0875 80.7722 76.5932 75.766 78.8951C72.7537 80.2789 69.2575 79.5212 66.8985 76.9168C60.9296 70.3242 54.9633 63.7317 49.0446 57.0944C48.2909 56.2473 47.68 56.0842 46.5878 56.4025C42.7557 57.5206 38.8681 57.5258 35.0122 56.4709C28.8106 54.7767 23.8731 48.8576 23.5319 42.4203C23.4076 40.1052 23.7567 37.7402 24.1058 35.4305C24.3041 34.1125 24.8886 34.0335 25.8645 34.9964C28.8555 37.9559 31.8545 40.9076 34.7927 43.9171C35.4724 44.6143 36.0965 44.7747 36.9931 44.5038C41.1557 43.2516 43.8347 40.5682 45.0274 36.4091C45.2681 35.5725 45.083 34.9438 44.4165 34.3124C41.3646 31.416 38.355 28.4748 35.3455 25.5363C34.1501 24.3709 34.2823 23.9369 35.9061 23.4712C47.2225 20.2249 57.7507 28.3302 57.9623 40.3157ZM72.5448 74.1861C73.7693 74.1967 74.8298 73.1812 74.8483 71.9737C74.8694 70.7241 73.7904 69.6429 72.5104 69.6324C71.2436 69.6218 70.244 70.5873 70.2281 71.8395C70.2122 73.1233 71.2489 74.1756 72.5448 74.1861Z" fill="#014784"/>
</g>
<defs>
<clipPath id="clip0_396_1652">
<rect width="80.6612" height="80" fill="white"/>
</clipPath>
</defs>
</svg>
