<svg width="32" height="32" viewBox="0 0 32 32" fill="none" xmlns="http://www.w3.org/2000/svg">
<path d="M31.0004 18.1667V26.5C31.0973 27.1792 31.0347 27.8716 30.8177 28.5225C30.6007 29.1733 30.2352 29.7647 29.7501 30.2498C29.265 30.7349 28.6736 31.1004 28.0228 31.3174C27.372 31.5344 26.6795 31.5969 26.0004 31.5H6.00037C5.3212 31.5969 4.62879 31.5344 3.97796 31.3174C3.32713 31.1004 2.73576 30.7349 2.25064 30.2498C1.76553 29.7647 1.4 29.1733 1.183 28.5225C0.965992 27.8716 0.903466 27.1792 1.00037 26.5V18.1667C0.903466 17.4875 0.965992 16.7951 1.183 16.1443C1.4 15.4935 1.76553 14.9021 2.25064 14.417C2.73576 13.9319 3.32713 13.5663 3.97796 13.3493C4.62879 13.1323 5.3212 13.0698 6.00037 13.1667H14.7504V23.1667C14.7504 23.4982 14.8821 23.8162 15.1165 24.0506C15.3509 24.285 15.6688 24.4167 16.0004 24.4167C16.3319 24.4167 16.6498 24.285 16.8843 24.0506C17.1187 23.8162 17.2504 23.4982 17.2504 23.1667V13.1667H26.0004C26.6795 13.0698 27.372 13.1323 28.0228 13.3493C28.6736 13.5663 29.265 13.9319 29.7501 14.417C30.2352 14.9021 30.6007 15.4935 30.8177 16.1443C31.0347 16.7951 31.0973 17.4875 31.0004 18.1667ZM17.2504 4.51838L20.117 7.38338C20.354 7.60418 20.6674 7.72438 20.9912 7.71867C21.3151 7.71295 21.6241 7.58177 21.8531 7.35275C22.0821 7.12373 22.2133 6.81475 22.219 6.49091C22.2247 6.16708 22.1045 5.85367 21.8837 5.61671L16.8837 0.61671C16.7663 0.501148 16.6277 0.409453 16.4754 0.34671C16.3243 0.283993 16.1623 0.251709 15.9987 0.251709C15.8351 0.251709 15.6731 0.283993 15.522 0.34671C15.3697 0.409453 15.2311 0.501148 15.1137 0.61671L10.1137 5.61671C9.87943 5.85143 9.74799 6.1696 9.7483 6.50122C9.74861 6.83285 9.88065 7.15077 10.1154 7.38504C10.3501 7.61932 10.6683 7.75076 10.9999 7.75044C11.3315 7.75013 11.6494 7.61809 11.8837 7.38338L14.7504 4.51838V13.1667H17.2504V4.51838Z" fill="white"/>
</svg>
