<svg width="73" height="80" viewBox="0 0 73 80" fill="none" xmlns="http://www.w3.org/2000/svg">
<g clip-path="url(#clip0_396_1646)">
<path d="M6.36583 80C6.06853 79.9202 5.77122 79.8389 5.47392 79.7622C2.17854 78.916 0.00979019 76.0925 0.00666068 72.5823C-0.00429262 63.9681 0.00353117 55.3554 0.00353117 46.7411C0.00353117 39.325 -0.00272786 31.9074 0.00666068 24.4913C0.0113549 21.0187 2.07683 18.2218 5.2971 17.3443C5.94022 17.1691 6.62714 17.0924 7.2953 17.0877C10.7816 17.0627 14.2694 17.0768 17.7557 17.0752C18.0358 17.0752 18.3174 17.0752 18.6632 17.0752C18.4958 11.8319 20.2687 7.43951 24.1634 3.99036C27.1818 1.31863 30.7541 0.00936188 34.7912 -2.35673e-05C37.7736 -0.00628053 40.5432 0.771147 43.0891 2.31662C45.6365 3.86209 47.6128 5.95817 49.0101 8.59548C50.4012 11.2234 50.9911 14.0343 50.8503 17.0721C52.2789 17.0721 53.6246 17.0721 54.9703 17.0721C59.5566 17.0752 62.9052 20.3805 62.9193 24.9668C62.9224 25.6989 63.1086 26.176 63.7032 26.6687C65.4933 28.1532 66.4212 30.1116 66.4728 32.4549C66.4947 33.4372 66.4759 34.4195 66.4759 35.4426H61.4859C61.4859 34.931 61.4891 34.4211 61.4859 33.9127C61.4719 31.4256 59.9274 29.8786 57.4317 29.877C42.5743 29.8739 27.7154 29.8754 12.858 29.8754H11.8472C11.8472 28.4035 11.794 26.98 11.8706 25.5628C11.9051 24.9215 12.4778 24.7338 13.0896 24.7353C15.4837 24.7431 17.8777 24.7385 20.2718 24.7385C20.505 24.7385 20.7381 24.7385 21.0839 24.7385C20.6458 23.8453 20.2577 23.0147 19.8227 22.2122C19.7586 22.0933 19.4613 22.0573 19.2719 22.0573C15.6026 22.0495 11.9332 22.0401 8.26544 22.0573C6.7711 22.0652 5.73367 23.1789 5.7321 24.7385C5.72428 30.0475 5.72897 35.3565 5.72897 40.664C5.72897 50.9176 5.72897 61.1696 5.72897 71.4232C5.72897 73.4896 6.66626 74.4485 8.7114 74.4485C25.2603 74.4516 41.8107 74.4516 58.3596 74.4485C60.4908 74.4485 61.4343 73.488 61.4406 71.3435C61.4421 70.566 61.4406 69.7886 61.4406 68.9611H66.4493C66.4493 70.9618 66.7623 72.9922 66.3774 74.8802C65.7843 77.7803 63.4904 79.1678 60.738 79.831C60.5674 79.8717 60.4047 79.9421 60.2388 79.9968H6.36583V80ZM32.2406 15.7988C31.3472 14.9604 30.377 14.0641 29.4209 13.1521C29.0345 12.783 28.6808 12.7141 28.2834 13.1271C27.4196 14.0265 26.5465 14.9181 25.6796 15.816C25.3291 16.1789 25.3197 16.5418 25.7 16.8969C27.7138 18.7771 29.7292 20.6542 31.7384 22.5407C32.1217 22.902 32.4613 22.8645 32.8165 22.5125C33.203 22.1277 33.5926 21.7445 33.99 21.3706C36.8238 18.6927 39.6638 16.0225 42.4914 13.3398C43.3332 12.5421 43.3285 12.1588 42.5211 11.3251C41.817 10.5961 41.0925 9.88598 40.3946 9.15235C39.9142 8.6471 39.4823 8.66587 39.0051 9.16017C38.0115 10.1879 37.0116 11.2093 35.9898 12.2104C34.7677 13.4071 33.519 14.5803 32.2406 15.8035V15.7988ZM48.4766 24.6571H59.4424C59.2468 23.0694 58.358 22.0855 57.0452 22.0636C54.7575 22.0261 52.4698 22.0433 50.1821 22.0605C49.9912 22.0605 49.7127 22.1887 49.6282 22.342C49.2198 23.0866 48.8646 23.8609 48.475 24.6571H48.4766Z" fill="#014784"/>
<path d="M72.4138 61.8861C72.3074 62.1692 72.1994 62.4539 72.0946 62.737C71.4499 64.4811 69.8648 65.6356 67.9667 65.6402C61.7218 65.6543 55.4769 65.695 49.2351 65.6183C43.145 65.5433 37.5416 60.6237 36.5167 54.6045C35.2164 46.9663 40.0828 40.0086 47.6828 38.679C48.5231 38.5319 49.39 38.4944 50.2459 38.4913C55.9432 38.4756 61.642 38.4819 67.3393 38.4835C70.0823 38.4835 71.5485 39.5925 72.323 42.2455C72.3371 42.2908 72.3841 42.3268 72.4169 42.3675V61.8861H72.4138ZM66.4771 43.5625C66.3425 43.5328 66.244 43.4937 66.1469 43.4937C60.8659 43.4937 55.5817 43.3999 50.3038 43.5281C45.6752 43.6408 42.0372 47.3683 41.9605 51.7873C41.8729 56.7585 45.6612 60.6441 50.6355 60.6566C55.6568 60.6707 60.6781 60.6597 65.6994 60.6581C65.9513 60.6581 66.2033 60.6347 66.4787 60.6206V43.5625H66.4771Z" fill="#014784"/>
<path d="M57.4172 52.2128C57.4031 53.8084 56.0715 55.1348 54.4817 55.1348C52.8778 55.1348 51.493 53.7348 51.5196 52.1377C51.5478 50.5125 52.906 49.2157 54.5552 49.2408C56.1607 49.2658 57.4313 50.5845 57.4172 52.2113V52.2128Z" fill="#014784"/>
</g>
<defs>
<clipPath id="clip0_396_1646">
<rect width="72.4138" height="80" fill="white"/>
</clipPath>
</defs>
</svg>
