<svg width="64" height="80" viewBox="0 0 64 80" fill="none" xmlns="http://www.w3.org/2000/svg">
<g clip-path="url(#clip0_396_1659)">
<path d="M63.5898 37.5083V39.6133C62.3939 40.8263 61.3205 42.2085 59.9725 43.2145C57.961 44.715 57.3441 45.9534 57.9652 48.4007C58.8611 51.9301 57.2595 54.1153 53.6042 54.3562C50.4898 54.5633 49.3615 55.4509 48.5121 58.3759C47.4557 62.0067 45.3217 63.0422 41.865 61.6093C39.245 60.5231 37.8336 60.8358 35.8939 62.9323C33.0035 66.0559 30.9962 66.0348 28.0889 62.8478C26.3817 60.9796 24.9829 60.6583 22.663 61.6009C18.64 63.2324 16.806 62.3828 15.3861 58.2153C14.5494 55.7595 13.362 54.8634 10.7716 54.7451C6.76553 54.5591 5.20621 52.5852 5.86121 48.536C6.24998 46.1309 5.55695 44.6389 3.50322 43.4427C-0.27887 41.2406 -0.790191 39.2751 1.62696 35.6401C2.90738 33.7127 2.97922 31.9586 1.60583 30.0354C-0.94232 26.4722 -0.485934 24.4434 3.22009 22.1483C5.43863 20.7746 6.05559 19.4051 5.59921 16.8648C4.92308 13.1114 6.25843 11.1418 9.97713 10.9135C12.9521 10.7318 14.5072 9.34116 15.2382 6.49655C16.0623 3.29688 18.471 2.27401 21.56 3.53358C24.6491 4.79316 25.6802 4.54801 27.9663 2.00772C30.3455 -0.634009 32.7457 -0.667823 35.0995 1.91473C37.4237 4.45924 38.4167 4.68749 41.5185 3.38565C44.523 2.12607 46.919 3.02637 47.7684 6.11614C48.6347 9.26508 50.4983 10.5711 53.6634 10.6261C56.4059 10.6726 57.9526 12.5915 57.7962 15.3474C57.754 16.0448 57.6779 16.7422 57.6187 17.4439C57.4539 19.3966 58.261 20.7915 59.9471 21.7805C63.9025 24.101 64.3251 25.8847 61.8318 29.7395C60.6275 31.6035 60.581 33.383 61.9037 35.1836C62.4699 35.9571 63.0277 36.7348 63.5855 37.5126L63.5898 37.5083ZM31.6343 52.7162C42.6763 52.7289 51.7026 43.7513 51.728 32.7279C51.7533 21.7214 42.7186 12.6634 31.7019 12.6592C20.6684 12.6549 11.6632 21.6241 11.6125 32.6645C11.566 43.6752 20.5754 52.7036 31.6301 52.7162H31.6343Z" fill="#014784"/>
<path d="M7.7501 80C6.35981 77.0032 4.93572 74.0234 3.61727 70.997C3.43556 70.5786 3.63418 69.8642 3.87927 69.4077C5.52733 66.3349 7.21765 63.2832 8.94177 60.2526C9.14884 59.8891 9.63903 59.4791 9.994 59.4791C10.3236 59.4791 10.7884 59.9482 10.9533 60.316C13.7972 66.7026 17.1778 68.275 23.6898 66.1954C23.8039 66.1574 23.9518 66.2292 24.3532 66.2926C22.2277 70.1221 20.2035 73.8966 18.0188 77.5781C17.668 78.1698 16.6623 78.4826 15.8932 78.6939C14.0381 79.2011 12.1449 79.5731 10.2644 80H7.74587H7.7501Z" fill="#014784"/>
<path d="M53.0971 80C51.2927 79.5773 49.4714 79.2012 47.6839 78.7109C46.9063 78.4995 45.8499 78.2628 45.5034 77.688C43.251 73.9557 41.1635 70.1305 39.114 66.0601C46.2936 68.5159 50.9884 66.2715 53.3211 58.6041C54.2127 60.1173 54.8381 61.1571 55.4382 62.2096C55.8904 62.9957 56.3087 63.8031 56.744 64.5977C59.178 69.0668 59.2485 73.5993 56.9553 78.1952C56.6256 78.8546 56.0678 79.3998 55.6157 80H53.0971Z" fill="#014784"/>
<path d="M35.584 27.168C35.3707 26.272 34.9973 25.6 34.464 25.152C33.952 24.704 33.2053 24.48 32.224 24.48C30.752 24.48 29.664 25.0773 28.96 26.272C28.2773 27.4453 27.9253 29.3653 27.904 32.032C28.416 31.1787 29.1627 30.5173 30.144 30.048C31.1253 29.5573 32.192 29.312 33.344 29.312C34.7307 29.312 35.9573 29.6107 37.024 30.208C38.0907 30.8053 38.9227 31.68 39.52 32.832C40.1173 33.9627 40.416 35.328 40.416 36.928C40.416 38.4427 40.1067 39.7973 39.488 40.992C38.8907 42.1653 38.0053 43.0827 36.832 43.744C35.6587 44.4053 34.2613 44.736 32.64 44.736C30.4213 44.736 28.672 44.2453 27.392 43.264C26.1333 42.2827 25.248 40.9173 24.736 39.168C24.2453 37.3973 24 35.2213 24 32.64C24 28.736 24.672 25.792 26.016 23.808C27.36 21.8027 29.4827 20.8 32.384 20.8C34.624 20.8 36.3627 21.408 37.6 22.624C38.8373 23.84 39.552 25.3547 39.744 27.168H35.584ZM32.32 32.992C31.1893 32.992 30.24 33.3227 29.472 33.984C28.704 34.6453 28.32 35.6053 28.32 36.864C28.32 38.1227 28.672 39.1147 29.376 39.84C30.1013 40.5653 31.1147 40.928 32.416 40.928C33.568 40.928 34.4747 40.576 35.136 39.872C35.8187 39.168 36.16 38.2187 36.16 37.024C36.16 35.7867 35.8293 34.8053 35.168 34.08C34.528 33.3547 33.5787 32.992 32.32 32.992Z" fill="#014784"/>
</g>
<defs>
<clipPath id="clip0_396_1659">
<rect width="63.5897" height="80" fill="white"/>
</clipPath>
</defs>
</svg>
